PathFileType	4	(X/Y/Z)	maxSprint.trc
DataRate	CameraRate	NumFrames	NumMarkers	Units	OrigDataRate	OrigDataStartFrame	OrigNumFrames
250.000000	250.000000	4	38	mm	250.000000	47	377
Frame#	Time	RASI			LASI			LAIC			RTH1			RTH2			RTH3			RTB1			RTB2			RTB3			RMT1			RMT5			LTH1			LTH2			LTH3			LTB1			LTB3			CLAV			STRN			RACR			LACR			LMT5			RPSI			LTB2			LMT1			RAIC			LCAL			T10			C7			LPSI			RCAL			*30			*31			*32			*33			RHJC			LHJC			MTOR			MPEL			
		X1	Y1	Z1	X2	Y2	Z2	X3	Y3	Z3	X4	Y4	Z4	X5	Y5	Z5	X6	Y6	Z6	X7	Y7	Z7	X8	Y8	Z8	X9	Y9	Z9	X10	Y10	Z10	X11	Y11	Z11	X12	Y12	Z12	X13	Y13	Z13	X14	Y14	Z14	X15	Y15	Z15	X16	Y16	Z16	X17	Y17	Z17	X18	Y18	Z18	X19	Y19	Z19	X20	Y20	Z20	X21	Y21	Z21	X22	Y22	Z22	X23	Y23	Z23	X24	Y24	Z24	X25	Y25	Z25	X26	Y26	Z26	X27	Y27	Z27	X28	Y28	Z28	X29	Y29	Z29	X30	Y30	Z30	X31	Y31	Z31	X32	Y32	Z32	X33	Y33	Z33	X34	Y34	Z34	X35	Y35	Z35	X36	Y36	Z36	X37	Y37	Z37	X38	Y38	Z38	

48	0.188	-3399.333251953127	1025.8408203125	253.4849243164064	-3459.657470703127	1010.154907226563	47.8577117919922	-3513.558105468752	1090.252807617188	34.070369720459	-3319.627441406252	890.9337768554692	344.2245178222657	-3220.649902343752	888.7331542968755	307.079559326172	-3170.173583984377	797.8059082031255	313.3437805175782	-3201.467529296877	622.1425781250002	231.6792144775392	-3250.156494140627	585.9029541015627	294.2202758789064	-3321.954589843752	558.7291259765627	257.6044921875001	-3457.708251953127	351.8017578125001	296.5867004394532	-3447.004150390627	382.8305664062501	398.979187011719	-3617.861816406252	712.3315429687502	27.90805053710939	-3628.469482421877	811.357299804688	24.08775329589845	-3699.340087890627	656.2612304687502	59.57129287719729	-3766.420898437502	400.2965393066409	154.0776977539063	-3857.930664062502	298.3469543457032	175.4676513671876	-3378.837402343752	1449.801391601563	166.9355163574219	-3340.098144531252	1258.561889648438	173.911605834961	-3484.968261718752	1489.354858398438	365.7602539062501	-3483.461914062502	1481.979736328125	-52.64386749267581	-3958.395996093752	48.70540618896487	84.59478759765628	-3584.125000000002	1072.009643554688	252.2582397460939	-3811.752929687502	337.2236633300782	116.7884216308594	-3920.252685546877	37.52491378784181	188.1688842773438	-3464.236816406252	1097.755981445313	328.0060119628907	-4070.246093750002	195.9612121582032	208.7007141113282	-3588.697998046877	1259.25634765625	170.0992431640626	-3516.877685546877	1520.936767578125	157.7561035156251	-3602.830810546877	1068.099975585938	157.8131561279297	-3573.338623046877	540.6614990234377	291.4402465820314	-3129.745117187502	744.006530761719	294.6405029296876	-3494.630371093752	530.383728027344	338.6572570800782	-4014.448730468752	198.9561767578126	137.7276153564454	-3729.549072265627	543.2145996093752	70.86528778076175	-3466.076774976888	973.8997790821415	238.8665692998487	-3505.894858332524	963.5460106006374	103.138636835174	-3466.036315917971	1485.518188476563	159.4520015716553	-3511.486633300783	1044.026336669922	177.8535079956055	
49	0.192	-3372.774414062502	1027.857421875	253.3878326416017	-3430.211181640627	1009.830444335938	48.26782608032229	-3481.160644531252	1090.357177734375	32.35005950927736	-3293.682617187502	896.1428833007817	344.5299072265626	-3194.676025390627	896.0188598632817	307.3687744140626	-3142.292724609377	806.157104492188	313.5960388183595	-3163.283935546877	625.9627685546877	231.6107788085939	-3209.891113281252	586.219177246094	293.2804260253907	-3280.118164062502	553.8826293945315	256.9395751953126	-3401.762695312502	337.8865966796876	292.6814270019532	-3393.734863281252	368.5316772460939	395.8157348632815	-3595.950683593752	715.6228027343752	28.38576126098634	-3603.308105468752	814.9047241210942	23.10379219055176	-3679.667724609377	662.7979736328127	60.14210510253909	-3751.554199218752	407.3446044921877	152.3458251953126	-3842.921875000002	305.0601806640626	172.4705352783204	-3352.552734375002	1452.231567382813	169.1717376708985	-3311.956542968752	1261.34814453125	177.0137329101563	-3461.393554687502	1491.904174804688	365.8851623535157	-3455.115478515627	1485.316650390625	-50.94673919677737	-3956.042968750002	51.18557739257815	84.4664001464844	-3556.983154296877	1074.005249023438	249.8212738037111	-3798.476074218752	345.9706115722657	113.9164962768555	-3916.912841796877	39.83701705932619	187.9338684082032	-3437.931152343752	1099.923583984375	327.6821594238282	-4054.691650390627	209.3068237304689	207.2481689453126	-3561.172363281252	1260.207885742188	168.1480102539063	-3490.689208984377	1522.1455078125	158.2591247558594	-3574.422119140627	1070.069458007813	155.2759246826172	-3530.488281250002	518.2196044921877	289.3214111328126	-3100.914550781252	752.597839355469	295.2954711914064	-3451.204833984377	513.030944824219	336.633758544922	-4000.991699218752	207.4043731689454	135.6182403564454	-3713.235839843752	551.1504516601565	71.74964141845706	-3439.304114232951	976.2518023715477	238.6862715002397	-3477.216303609849	964.3527660021283	103.2930580300681	-3439.937744140627	1487.899475097656	160.5923213958741	-3483.597717285158	1045.440643310547	176.6882143020631	
50	0.196	-3346.244384765627	1029.217529296875	253.2117156982423	-3400.947509765627	1009.528564453125	48.96952819824222	-3448.738281250002	1090.413696289063	30.76680564880373	-3268.218505859377	900.770141601563	344.8803710937501	-3169.248291015627	902.4935913085942	307.9384765625001	-3115.345703125002	813.3925781250005	314.1633300781251	-3126.767333984377	629.0450439453127	231.1487884521486	-3171.613281250002	585.6651000976565	291.152069091797	-3238.229492187502	549.0706176757815	255.570037841797	-3344.812744140627	324.967254638672	288.8309631347657	-3339.953613281252	354.778045654297	392.057312011719	-3573.546875000002	719.0442504882815	28.82009124755861	-3578.030517578127	818.4135131835942	22.07693099975587	-3659.264160156252	669.1955566406252	60.72860336303714	-3736.045654296877	414.1835937500002	151.2949218750001	-3827.097900390627	311.8109741210939	169.6073303222657	-3326.236572265627	1454.605712890625	171.2131652832032	-3284.300292968752	1264.09326171875	179.431137084961	-3437.527099609377	1494.27392578125	365.7706909179689	-3426.916259765627	1488.520263671875	-49.22737503051761	-3953.376708984377	55.19906234741214	84.62988281250003	-3529.913330078127	1076.087158203125	247.399383544922	-3784.559082031252	354.3598022460939	110.8381500244141	-3912.490478515627	43.21604537963869	187.4704589843751	-3411.586914062502	1101.917236328125	327.0957031250001	-4038.097656250002	223.2120208740236	205.9449920654298	-3533.571044921877	1261.277954101563	166.2456054687501	-3464.383544921877	1523.364624023438	158.7159729003907	-3546.084472656252	1072.150756835938	152.7341613769532	-3485.839843750002	495.7097167968752	286.0489196777345	-3073.227783203127	760.0657348632815	296.0077514648439	-3407.073486328127	495.8351745605471	334.0586853027345	-3986.654296875002	216.6770629882814	134.0403289794922	-3695.230957031252	558.8499145507815	73.17909240722659	-3412.726094033248	978.3069054205268	238.3986252777096	-3448.833917513018	965.3108349569561	103.5847393548845	-3413.765869140627	1490.191131591797	161.6181135177613	-3455.797424316408	1046.746002197266	175.57869720459	
51	0.2	-3320.009521484377	1030.396240234375	253.6843414306642	-3371.850830078127	1009.172973632813	49.67014312744143	-3416.495361328127	1090.381469726563	29.26108551025392	-3243.567138671877	904.794555664063	345.608612060547	-3144.380859375002	908.0695190429692	308.8661499023439	-3089.514404296877	819.333129882813	315.0041809082032	-3090.670898437502	632.0366821289065	231.0237426757814	-3132.437988281252	584.898376464844	290.325897216797	-3196.304199218752	544.2943115234377	254.3262939453126	-3288.146484375002	312.8154602050782	284.0898742675782	-3286.269775390627	341.6118469238282	388.0564270019534	-3550.710449218752	722.388610839844	29.03165245056154	-3552.510009765627	821.6894531250005	21.30969810485841	-3638.085937500002	675.392517089844	61.10409927368167	-3718.809570312502	420.8052978515627	149.2559967041016	-3810.609863281252	318.3354797363282	167.1244354248047	-3299.839355468752	1456.770385742188	173.2725219726563	-3256.991210937502	1266.714721679688	181.3783264160157	-3413.461669921877	1496.066284179688	365.6918029785157	-3398.794921875002	1491.54736328125	-47.58984375000001	-3950.232421875002	60.16949844360354	85.60426330566409	-3502.900634765627	1078.39501953125	244.8992309570314	-3769.375732421877	362.5516967773439	108.6930618286133	-3906.971679687502	48.058708190918	186.6452789306641	-3385.591064453127	1103.583618164063	326.8489074707032	-4020.539306640627	237.3029937744142	205.0529327392579	-3506.052734375002	1262.474487304688	164.4148559570313	-3437.994873046877	1524.424194335938	159.2801666259766	-3517.952148437502	1074.35546875	150.1199951171876	-3440.205078125002	473.2801818847659	282.0979919433595	-3046.585693359376	766.3555908203127	296.8824157714845	-3362.597656250002	478.4387207031252	331.2120361328126	-3971.643066406252	226.479705810547	132.5163879394532	-3677.136230468752	566.567321777344	73.28121185302737	-3386.587619393272	980.1395646785134	238.540762691862	-3420.806460609502	966.1307441138235	103.8773128877421	-3387.522705078127	1492.202056884766	162.6636619567872	-3428.178283691408	1048.079925537109	174.5934276580812	
